# Blender v2.78 (sub 0) OBJ File: ''
# www.blender.org
v -1.000000 1.316918 0.000000
v -0.923880 1.316918 0.382683
v -0.707107 1.316918 0.707107
v -0.382683 1.316918 0.923880
v 0.000000 1.316918 1.000000
v 0.382683 1.316918 0.923880
v 0.707107 1.316918 0.707107
v 0.923880 1.316918 0.382683
v 1.000000 1.316918 -0.000000
v 0.923880 1.316918 -0.382683
v 0.707107 1.316918 -0.707107
v 0.382684 1.316918 -0.923880
v -0.000000 1.316918 -1.000000
v -0.382684 1.316918 -0.923879
v -0.707107 1.316918 -0.707107
v -0.923880 1.316918 -0.382683
v -1.000000 1.350918 0.000000
v -0.923880 1.350918 0.382683
v -0.707107 1.350918 0.707107
v -0.382683 1.350918 0.923880
v 0.000000 1.350918 1.000000
v 0.382683 1.350918 0.923880
v 0.707107 1.350918 0.707107
v 0.923880 1.350918 0.382683
v 1.000000 1.350918 -0.000000
v 0.923880 1.350918 -0.382683
v 0.707107 1.350918 -0.707107
v 0.382684 1.350918 -0.923880
v -0.000000 1.350918 -1.000000
v -0.382684 1.350918 -0.923879
v -0.707107 1.350918 -0.707107
v -0.923880 1.350918 -0.382683
v -0.980785 1.334787 0.195090
v -0.831470 1.334787 0.555570
v -0.555570 1.334787 0.831470
v -0.195090 1.334787 0.980785
v 0.195090 1.334787 0.980785
v 0.555570 1.334787 0.831470
v 0.831470 1.334787 0.555570
v 0.980785 1.334787 0.195090
v 0.980785 1.334787 -0.195090
v 0.831470 1.334787 -0.555570
v 0.555570 1.334787 -0.831469
v 0.195090 1.334787 -0.980785
v -0.195090 1.334787 -0.980785
v -0.555570 1.334787 -0.831470
v -0.831470 1.334787 -0.555570
v -0.980785 1.334787 -0.195090
v -0.980785 1.335004 0.195090
v -0.831470 1.335004 0.555570
v -0.555570 1.335004 0.831470
v -0.195090 1.335004 0.980785
v 0.195090 1.335004 0.980785
v 0.555570 1.335004 0.831470
v 0.831470 1.335004 0.555570
v 0.980785 1.335004 0.195090
v 0.980785 1.335004 -0.195090
v 0.831470 1.335004 -0.555570
v 0.555570 1.335004 -0.831469
v 0.195090 1.335004 -0.980785
v -0.195090 1.335004 -0.980785
v -0.555570 1.335004 -0.831470
v -0.831470 1.335004 -0.555570
v -0.980785 1.335004 -0.195090
v -0.995185 1.330374 0.098017
v -0.956940 1.330374 0.290285
v -0.881921 1.330374 0.471397
v -0.773010 1.330374 0.634393
v -0.634393 1.330374 0.773010
v -0.471397 1.330374 0.881921
v -0.290285 1.330374 0.956940
v -0.098017 1.330374 0.995185
v 0.098017 1.330374 0.995185
v 0.290285 1.330374 0.956940
v 0.471397 1.330374 0.881921
v 0.634393 1.330374 0.773010
v 0.773010 1.330374 0.634393
v 0.881921 1.330374 0.471397
v 0.956940 1.330374 0.290285
v 0.995185 1.330374 0.098017
v 0.995185 1.330374 -0.098017
v 0.956940 1.330374 -0.290285
v 0.881921 1.330374 -0.471397
v 0.773011 1.330374 -0.634393
v 0.634393 1.330374 -0.773010
v 0.471397 1.330374 -0.881921
v 0.290285 1.330374 -0.956940
v 0.098017 1.330374 -0.995185
v -0.098017 1.330374 -0.995185
v -0.290285 1.330374 -0.956940
v -0.471397 1.330374 -0.881921
v -0.634393 1.330374 -0.773010
v -0.773011 1.330374 -0.634393
v -0.881921 1.330374 -0.471397
v -0.956940 1.330374 -0.290285
v -0.995185 1.330374 -0.098017
v -0.995185 1.338935 0.098017
v -0.956940 1.338935 0.290285
v -0.881921 1.338935 0.471397
v -0.773010 1.338935 0.634393
v -0.634393 1.338935 0.773010
v -0.471397 1.338935 0.881921
v -0.290285 1.338935 0.956940
v -0.098017 1.338935 0.995185
v 0.098017 1.338935 0.995185
v 0.290285 1.338935 0.956940
v 0.471397 1.338935 0.881921
v 0.634393 1.338935 0.773010
v 0.773010 1.338935 0.634393
v 0.881921 1.338935 0.471397
v 0.956940 1.338935 0.290285
v 0.995185 1.338935 0.098017
v 0.995185 1.338935 -0.098017
v 0.956940 1.338935 -0.290285
v 0.881921 1.338935 -0.471397
v 0.773011 1.338935 -0.634393
v 0.634393 1.338935 -0.773010
v 0.471397 1.338935 -0.881921
v 0.290285 1.338935 -0.956940
v 0.098017 1.338935 -0.995185
v -0.098017 1.338935 -0.995185
v -0.290285 1.338935 -0.956940
v -0.471397 1.338935 -0.881921
v -0.634393 1.338935 -0.773010
v -0.773011 1.338935 -0.634393
v -0.881921 1.338935 -0.471397
v -0.956940 1.338935 -0.290285
v -0.995185 1.338935 -0.098017
v -0.647500 1.593918 0.268203
v -0.268203 1.593918 0.647500
v 0.268203 1.593918 0.647500
v 0.647500 1.593918 0.268203
v 0.647500 1.593918 -0.268203
v 0.268203 1.593918 -0.647500
v -0.268203 1.593918 -0.647500
v -0.647500 1.593918 -0.268203
v -0.530000 1.674918 0.000000
v -0.374767 1.674918 0.374767
v 0.000000 1.674918 0.530000
v 0.374767 1.674918 0.374767
v 0.530000 1.674918 -0.000000
v 0.374767 1.674918 -0.374767
v -0.000000 1.674918 -0.530000
v -0.374766 1.674918 -0.374767
v -0.400000 0.799718 0.165685
v -0.165685 0.799718 0.400000
v 0.165685 0.799718 0.400000
v 0.400000 0.799718 0.165685
v 0.400000 0.799718 -0.165685
v 0.165685 0.799718 -0.400000
v -0.165686 0.799718 -0.400000
v -0.400000 0.799718 -0.165685
v 0.000000 0.454918 0.000000
vn -0.9988 0.0000 0.0491
vn -0.9988 0.0000 -0.0491
vn -0.9040 0.0000 0.4276
vn -0.9415 0.0000 0.3369
vn -0.6716 0.0000 0.7410
vn -0.7410 0.0000 0.6716
vn -0.3369 0.0000 0.9415
vn -0.4276 0.0000 0.9040
vn 0.0491 0.0000 0.9988
vn -0.0491 0.0000 0.9988
vn 0.4276 0.0000 0.9040
vn 0.3369 0.0000 0.9415
vn 0.7410 0.0000 0.6716
vn 0.6716 0.0000 0.7410
vn 0.9415 0.0000 0.3369
vn 0.9040 0.0000 0.4276
vn 0.9988 0.0000 -0.0491
vn 0.9988 0.0000 0.0491
vn 0.9040 0.0000 -0.4276
vn 0.9415 0.0000 -0.3369
vn 0.6716 0.0000 -0.7410
vn 0.7410 0.0000 -0.6716
vn 0.3369 0.0000 -0.9415
vn 0.4276 0.0000 -0.9040
vn -0.0491 0.0000 -0.9988
vn 0.0491 0.0000 -0.9988
vn -0.4276 0.0000 -0.9040
vn -0.3369 0.0000 -0.9415
vn -0.7409 0.0000 -0.6716
vn -0.6716 0.0000 -0.7410
vn -0.9415 0.0000 -0.3369
vn -0.9040 0.0000 -0.4276
vn -0.9892 0.0000 0.1467
vn -0.9701 0.0000 0.2429
vn -0.8577 0.0000 0.5141
vn -0.8033 0.0000 0.5956
vn -0.5957 0.0000 0.8032
vn -0.5143 0.0000 0.8576
vn -0.2430 0.0000 0.9700
vn -0.1467 0.0000 0.9892
vn 0.1467 0.0000 0.9892
vn 0.2430 0.0000 0.9700
vn 0.5141 0.0000 0.8577
vn 0.5959 0.0000 0.8030
vn 0.8032 0.0000 0.5957
vn 0.8579 0.0000 0.5138
vn 0.9700 0.0000 0.2430
vn 0.9892 0.0000 0.1466
vn 0.9892 0.0000 -0.1467
vn 0.9701 0.0000 -0.2429
vn 0.8577 0.0000 -0.5141
vn 0.8033 0.0000 -0.5956
vn 0.5957 0.0000 -0.8032
vn 0.5140 0.0000 -0.8578
vn 0.2430 0.0000 -0.9700
vn 0.1467 0.0000 -0.9892
vn -0.1467 0.0000 -0.9892
vn -0.2430 0.0000 -0.9700
vn -0.5141 0.0000 -0.8577
vn -0.5959 0.0000 -0.8030
vn -0.8032 0.0000 -0.5957
vn -0.8579 0.0000 -0.5138
vn -0.9700 0.0000 -0.2430
vn -0.9892 0.0000 -0.1466
vn -0.6256 0.7703 -0.1240
vn -0.5307 0.7701 -0.3541
vn -0.5300 0.7703 0.3547
vn -0.6256 0.7701 0.1249
vn -0.1240 0.7703 0.6256
vn -0.3541 0.7701 0.5307
vn 0.3547 0.7703 0.5300
vn 0.1249 0.7701 0.6256
vn 0.6256 0.7703 0.1240
vn 0.5307 0.7701 0.3541
vn 0.5300 0.7703 -0.3547
vn 0.6256 0.7701 -0.1249
vn 0.1240 0.7703 -0.6256
vn 0.3541 0.7701 -0.5307
vn -0.3547 0.7703 -0.5300
vn -0.1249 0.7701 -0.6256
vn -0.3308 0.9337 0.1370
vn -0.4013 0.8233 0.4013
vn -0.1370 0.9337 0.3308
vn 0.0000 0.8233 0.5676
vn 0.1370 0.9337 0.3308
vn 0.4013 0.8233 0.4013
vn 0.3308 0.9337 0.1370
vn 0.5676 0.8233 0.0000
vn 0.3308 0.9337 -0.1370
vn 0.4013 0.8233 -0.4013
vn 0.1370 0.9337 -0.3308
vn -0.0000 0.8233 -0.5676
vn -0.1370 0.9337 -0.3308
vn -0.4013 0.8233 -0.4013
vn -0.3308 0.9337 -0.1370
vn -0.5676 0.8233 0.0000
vn 0.0000 1.0000 0.0000
vn -0.6680 -0.7323 0.1324
vn -0.6679 -0.7322 -0.1333
vn -0.3787 -0.7323 0.5659
vn -0.5665 -0.7322 0.3780
vn 0.1324 -0.7323 0.6680
vn -0.1333 -0.7322 0.6679
vn 0.5659 -0.7323 0.3787
vn 0.3780 -0.7322 0.5665
vn 0.6680 -0.7323 -0.1324
vn 0.6679 -0.7322 0.1333
vn 0.3787 -0.7323 -0.5659
vn 0.5665 -0.7322 -0.3780
vn -0.1324 -0.7323 -0.6680
vn 0.1333 -0.7322 -0.6679
vn -0.5659 -0.7323 -0.3787
vn -0.3780 -0.7322 -0.5665
vn -0.6529 -0.7574 0.0000
vn -0.4617 -0.7574 0.4617
vn 0.0000 -0.7574 0.6529
vn 0.4617 -0.7574 0.4617
vn 0.6529 -0.7574 0.0000
vn 0.4617 -0.7574 -0.4617
vn 0.0000 -0.7574 -0.6529
vn -0.4617 -0.7574 -0.4617
vn -0.6716 0.0000 0.7409
vn 0.6716 0.0000 0.7409
vn 0.6716 0.0000 -0.7409
vn 0.4275 0.0000 -0.9040
vn -0.6716 0.0000 -0.7409
vn -0.9892 0.0000 0.1466
vn -0.9700 0.0000 0.2430
vn -0.8576 0.0000 0.5143
vn -0.8032 0.0000 0.5957
vn -0.5956 0.0000 0.8033
vn -0.5141 0.0000 0.8577
vn 0.5140 0.0000 0.8578
vn 0.5957 0.0000 0.8032
vn 0.8033 0.0000 0.5956
vn 0.8577 0.0000 0.5141
vn 0.9701 0.0000 0.2429
vn 0.9892 0.0000 0.1467
vn 0.9892 0.0000 -0.1466
vn 0.9700 0.0000 -0.2430
vn 0.8576 0.0000 -0.5143
vn 0.8032 0.0000 -0.5957
vn 0.5956 0.0000 -0.8033
vn 0.5141 0.0000 -0.8577
vn -0.5143 0.0000 -0.8576
vn -0.5957 0.0000 -0.8032
vn -0.8033 0.0000 -0.5956
vn -0.8577 0.0000 -0.5141
vn -0.9701 0.0000 -0.2429
vn -0.9892 0.0000 -0.1467
vn -0.6258 0.7699 -0.1249
vn -0.6257 0.7701 -0.1240
vn -0.6256 0.7701 -0.1249
vn -0.5308 0.7699 -0.3542
vn -0.5300 0.7703 -0.3547
vn -0.5302 0.7701 -0.3548
vn -0.5302 0.7701 0.3548
vn -0.5307 0.7701 0.3541
vn -0.5308 0.7699 0.3542
vn -0.6257 0.7701 0.1240
vn -0.6258 0.7699 0.1249
vn -0.6256 0.7703 0.1240
vn -0.1240 0.7701 0.6257
vn -0.1249 0.7701 0.6256
vn -0.1249 0.7699 0.6258
vn -0.3548 0.7701 0.5302
vn -0.3542 0.7699 0.5308
vn -0.3547 0.7703 0.5300
vn 0.3548 0.7701 0.5302
vn 0.3541 0.7701 0.5307
vn 0.3542 0.7699 0.5308
vn 0.1240 0.7701 0.6257
vn 0.1249 0.7699 0.6258
vn 0.1240 0.7703 0.6256
vn 0.6257 0.7701 0.1240
vn 0.6256 0.7701 0.1249
vn 0.6258 0.7699 0.1249
vn 0.5302 0.7701 0.3548
vn 0.5308 0.7699 0.3542
vn 0.5300 0.7703 0.3547
vn 0.5302 0.7701 -0.3548
vn 0.5307 0.7701 -0.3541
vn 0.5308 0.7699 -0.3542
vn 0.6257 0.7701 -0.1240
vn 0.6258 0.7699 -0.1249
vn 0.6256 0.7703 -0.1240
vn 0.1240 0.7701 -0.6257
vn 0.1249 0.7701 -0.6256
vn 0.1249 0.7699 -0.6258
vn 0.3548 0.7701 -0.5302
vn 0.3542 0.7699 -0.5308
vn 0.3547 0.7703 -0.5300
vn -0.3548 0.7701 -0.5302
vn -0.3541 0.7701 -0.5307
vn -0.3542 0.7699 -0.5308
vn -0.1240 0.7701 -0.6257
vn -0.1249 0.7699 -0.6258
vn -0.1240 0.7703 -0.6256
vn -0.6679 -0.7322 0.1333
vn -0.6681 -0.7322 0.1324
vn -0.6680 -0.7323 -0.1324
vn -0.6681 -0.7322 -0.1324
vn -0.3780 -0.7322 0.5666
vn -0.3788 -0.7322 0.5660
vn -0.3780 -0.7322 0.5665
vn -0.5666 -0.7322 0.3780
vn -0.5659 -0.7323 0.3787
vn -0.5660 -0.7322 0.3788
vn 0.1333 -0.7322 0.6679
vn 0.1324 -0.7322 0.6681
vn -0.1324 -0.7323 0.6680
vn -0.1324 -0.7322 0.6681
vn 0.5666 -0.7322 0.3780
vn 0.5660 -0.7322 0.3788
vn 0.5665 -0.7322 0.3780
vn 0.3780 -0.7322 0.5666
vn 0.3787 -0.7323 0.5659
vn 0.3788 -0.7322 0.5660
vn 0.6679 -0.7322 -0.1333
vn 0.6681 -0.7322 -0.1324
vn 0.6680 -0.7323 0.1324
vn 0.6681 -0.7322 0.1324
vn 0.3780 -0.7322 -0.5666
vn 0.3788 -0.7322 -0.5660
vn 0.3780 -0.7322 -0.5665
vn 0.5666 -0.7322 -0.3780
vn 0.5659 -0.7323 -0.3787
vn 0.5660 -0.7322 -0.3788
vn -0.1333 -0.7322 -0.6679
vn -0.1324 -0.7322 -0.6681
vn 0.1324 -0.7323 -0.6680
vn 0.1324 -0.7322 -0.6681
vn -0.5666 -0.7322 -0.3780
vn -0.5660 -0.7322 -0.3788
vn -0.5665 -0.7322 -0.3780
vn -0.3780 -0.7322 -0.5666
vn -0.3787 -0.7323 -0.5659
vn -0.3788 -0.7322 -0.5660
s off
f 65//1 17//1 1//1
f 17//2 96//2 1//2
f 67//3 18//3 2//3
f 18//4 66//4 2//4
f 69//5 19//5 3//5
f 19//6 68//6 3//6
f 71//7 20//7 4//7
f 20//8 70//8 4//8
f 73//9 21//9 5//9
f 21//10 72//10 5//10
f 75//11 22//11 6//11
f 22//12 74//12 6//12
f 77//13 23//13 7//13
f 23//14 76//14 7//14
f 79//15 24//15 8//15
f 24//16 78//16 8//16
f 81//17 25//17 9//17
f 25//18 80//18 9//18
f 83//19 26//19 10//19
f 26//20 82//20 10//20
f 85//21 27//21 11//21
f 27//22 84//22 11//22
f 87//23 28//23 12//23
f 28//24 86//24 12//24
f 89//25 29//25 13//25
f 29//26 88//26 13//26
f 91//27 30//27 14//27
f 30//28 90//28 14//28
f 93//29 31//29 15//29
f 31//30 92//30 15//30
f 95//31 32//31 16//31
f 32//32 94//32 16//32
f 33//33 97//33 65//33
f 33//34 98//34 49//34
f 34//35 99//35 67//35
f 34//36 100//36 50//36
f 35//37 101//37 69//37
f 35//38 102//38 51//38
f 36//39 103//39 71//39
f 36//40 104//40 52//40
f 37//41 105//41 73//41
f 37//42 106//42 53//42
f 38//43 107//43 75//43
f 38//44 108//44 54//44
f 39//45 109//45 77//45
f 39//46 110//46 55//46
f 40//47 111//47 79//47
f 40//48 112//48 56//48
f 41//49 113//49 81//49
f 41//50 114//50 57//50
f 42//51 115//51 83//51
f 42//52 116//52 58//52
f 43//53 117//53 85//53
f 43//54 118//54 59//54
f 44//55 119//55 87//55
f 44//56 120//56 60//56
f 45//57 121//57 89//57
f 45//58 122//58 61//58
f 46//59 123//59 91//59
f 46//60 124//60 62//60
f 47//61 125//61 93//61
f 47//62 126//62 63//62
f 48//63 127//63 95//63
f 48//64 128//64 64//64
f 136//65 64//65 128//65
f 63//66 126//66 136//66
f 50//67 100//67 129//67
f 129//68 49//68 98//68
f 52//69 104//69 130//69
f 130//70 51//70 102//70
f 54//71 108//71 131//71
f 131//72 53//72 106//72
f 56//73 112//73 132//73
f 132//74 55//74 110//74
f 58//75 116//75 133//75
f 133//76 57//76 114//76
f 60//77 120//77 134//77
f 134//78 59//78 118//78
f 62//79 124//79 135//79
f 135//80 61//80 122//80
f 137//81 129//81 138//81
f 129//82 130//82 138//82
f 138//83 130//83 139//83
f 130//84 131//84 139//84
f 139//85 131//85 140//85
f 131//86 132//86 140//86
f 140//87 132//87 141//87
f 132//88 133//88 141//88
f 141//89 133//89 142//89
f 133//90 134//90 142//90
f 142//91 134//91 143//91
f 134//92 135//92 143//92
f 143//93 135//93 144//93
f 135//94 136//94 144//94
f 144//95 136//95 137//95
f 129//96 136//96 17//96
f 140//97 142//97 144//97
f 145//98 33//98 65//98
f 48//99 95//99 152//99
f 146//100 35//100 69//100
f 34//101 67//101 145//101
f 147//102 37//102 73//102
f 36//103 71//103 146//103
f 148//104 39//104 77//104
f 38//105 75//105 147//105
f 149//106 41//106 81//106
f 40//107 79//107 148//107
f 150//108 43//108 85//108
f 42//109 83//109 149//109
f 151//110 45//110 89//110
f 44//111 87//111 150//111
f 152//112 47//112 93//112
f 46//113 91//113 151//113
f 152//114 145//114 1//114
f 145//115 146//115 3//115
f 146//116 147//116 5//116
f 147//117 148//117 7//117
f 148//118 149//118 9//118
f 149//119 150//119 11//119
f 150//120 151//120 13//120
f 151//121 152//121 15//121
f 65//1 97//1 17//1
f 17//2 128//2 96//2
f 67//3 99//3 18//3
f 18//4 98//4 66//4
f 69//122 101//122 19//122
f 19//6 100//6 68//6
f 71//7 103//7 20//7
f 20//8 102//8 70//8
f 73//9 105//9 21//9
f 21//10 104//10 72//10
f 75//11 107//11 22//11
f 22//12 106//12 74//12
f 77//13 109//13 23//13
f 23//123 108//123 76//123
f 79//15 111//15 24//15
f 24//16 110//16 78//16
f 81//17 113//17 25//17
f 25//18 112//18 80//18
f 83//19 115//19 26//19
f 26//20 114//20 82//20
f 85//124 117//124 27//124
f 27//22 116//22 84//22
f 87//23 119//23 28//23
f 28//125 118//125 86//125
f 89//25 121//25 29//25
f 29//26 120//26 88//26
f 91//27 123//27 30//27
f 30//28 122//28 90//28
f 93//29 125//29 31//29
f 31//126 124//126 92//126
f 95//31 127//31 32//31
f 32//32 126//32 94//32
f 33//127 49//127 97//127
f 33//128 66//128 98//128
f 34//129 50//129 99//129
f 34//130 68//130 100//130
f 35//131 51//131 101//131
f 35//132 70//132 102//132
f 36//39 52//39 103//39
f 36//40 72//40 104//40
f 37//41 53//41 105//41
f 37//42 74//42 106//42
f 38//133 54//133 107//133
f 38//134 76//134 108//134
f 39//135 55//135 109//135
f 39//136 78//136 110//136
f 40//137 56//137 111//137
f 40//138 80//138 112//138
f 41//139 57//139 113//139
f 41//140 82//140 114//140
f 42//141 58//141 115//141
f 42//142 84//142 116//142
f 43//143 59//143 117//143
f 43//144 86//144 118//144
f 44//55 60//55 119//55
f 44//56 88//56 120//56
f 45//57 61//57 121//57
f 45//58 90//58 122//58
f 46//145 62//145 123//145
f 46//146 92//146 124//146
f 47//147 63//147 125//147
f 47//148 94//148 126//148
f 48//149 64//149 127//149
f 48//150 96//150 128//150
f 128//151 17//151 136//151
f 136//152 32//152 127//152
f 127//153 64//153 136//153
f 136//154 31//154 125//154
f 125//155 63//155 136//155
f 126//156 32//156 136//156
f 129//157 18//157 99//157
f 99//158 50//158 129//158
f 100//159 19//159 129//159
f 98//160 18//160 129//160
f 129//161 17//161 97//161
f 97//162 49//162 129//162
f 130//163 20//163 103//163
f 103//164 52//164 130//164
f 104//165 21//165 130//165
f 102//166 20//166 130//166
f 130//167 19//167 101//167
f 101//168 51//168 130//168
f 131//169 22//169 107//169
f 107//170 54//170 131//170
f 108//171 23//171 131//171
f 106//172 22//172 131//172
f 131//173 21//173 105//173
f 105//174 53//174 131//174
f 132//175 24//175 111//175
f 111//176 56//176 132//176
f 112//177 25//177 132//177
f 110//178 24//178 132//178
f 132//179 23//179 109//179
f 109//180 55//180 132//180
f 133//181 26//181 115//181
f 115//182 58//182 133//182
f 116//183 27//183 133//183
f 114//184 26//184 133//184
f 133//185 25//185 113//185
f 113//186 57//186 133//186
f 134//187 28//187 119//187
f 119//188 60//188 134//188
f 120//189 29//189 134//189
f 118//190 28//190 134//190
f 134//191 27//191 117//191
f 117//192 59//192 134//192
f 135//193 30//193 123//193
f 123//194 62//194 135//194
f 124//195 31//195 135//195
f 122//196 30//196 135//196
f 135//197 29//197 121//197
f 121//198 61//198 135//198
f 129//82 19//82 130//82
f 130//84 21//84 131//84
f 131//86 23//86 132//86
f 132//88 25//88 133//88
f 133//90 27//90 134//90
f 134//92 29//92 135//92
f 135//94 31//94 136//94
f 129//96 137//96 136//96
f 144//97 137//97 138//97
f 138//97 139//97 140//97
f 140//97 141//97 142//97
f 142//97 143//97 144//97
f 144//97 138//97 140//97
f 65//199 1//199 145//199
f 145//200 2//200 66//200
f 66//199 33//199 145//199
f 152//99 1//99 96//99
f 96//201 48//201 152//201
f 95//202 16//202 152//202
f 69//203 3//203 146//203
f 146//204 4//204 70//204
f 70//205 35//205 146//205
f 145//206 3//206 68//206
f 68//207 34//207 145//207
f 67//208 2//208 145//208
f 73//209 5//209 147//209
f 147//210 6//210 74//210
f 74//209 37//209 147//209
f 146//103 5//103 72//103
f 72//211 36//211 146//211
f 71//212 4//212 146//212
f 77//213 7//213 148//213
f 148//214 8//214 78//214
f 78//215 39//215 148//215
f 147//216 7//216 76//216
f 76//217 38//217 147//217
f 75//218 6//218 147//218
f 81//219 9//219 149//219
f 149//220 10//220 82//220
f 82//219 41//219 149//219
f 148//107 9//107 80//107
f 80//221 40//221 148//221
f 79//222 8//222 148//222
f 85//223 11//223 150//223
f 150//224 12//224 86//224
f 86//225 43//225 150//225
f 149//226 11//226 84//226
f 84//227 42//227 149//227
f 83//228 10//228 149//228
f 89//229 13//229 151//229
f 151//230 14//230 90//230
f 90//229 45//229 151//229
f 150//111 13//111 88//111
f 88//231 44//231 150//231
f 87//232 12//232 150//232
f 93//233 15//233 152//233
f 152//234 16//234 94//234
f 94//235 47//235 152//235
f 151//236 15//236 92//236
f 92//237 46//237 151//237
f 91//238 14//238 151//238
f 152//114 153//114 145//114
f 145//115 153//115 146//115
f 146//116 153//116 147//116
f 147//117 153//117 148//117
f 148//118 153//118 149//118
f 149//119 153//119 150//119
f 150//120 153//120 151//120
f 151//121 153//121 152//121
