/* XPM */
static char *coordinates[] = {
/* columns rows colors chars-per-pixel */
"108 25 75 1 ",
"  c #050505",
". c #0D0D0D",
"X c #100F10",
"o c #141414",
"O c #171718",
"+ c #1C1C1C",
"@ c #20201F",
"# c #232323",
"$ c #2B2B2B",
"% c #302F2F",
"& c #333333",
"* c #383837",
"= c #3B3B3B",
"- c #454444",
"; c #4B4B4B",
": c #545454",
"> c #585757",
", c #575758",
"< c #575858",
"1 c #5A5A5A",
"2 c #646464",
"3 c #6C6C6C",
"4 c #747373",
"5 c #7B7B7B",
"6 c #848484",
"7 c #878887",
"8 c #8C8C8C",
"9 c #8F8F90",
"0 c #949494",
"q c #989797",
"w c #989897",
"e c #9C9C9C",
"r c #A09FA0",
"t c #A3A3A3",
"y c #A8A8A7",
"u c #ABABAB",
"i c #B0AFB0",
"p c #AFB0B0",
"a c #B3B3B3",
"s c #BCBDBD",
"d c #C0BFBF",
"f c #BFC0BF",
"g c #C0C0BF",
"h c #BFBFC0",
"j c #C0BFC0",
"k c #BFC0C0",
"l c #C4C4C3",
"z c #C8C7C7",
"x c #C7C8C7",
"c c #C8C8C7",
"v c #C7C7C8",
"b c #C8C7C8",
"n c #C7C8C8",
"m c #CBCBCB",
"M c #D7D7D6",
"N c #D8D7D7",
"B c #D7D8D7",
"V c #D8D8D7",
"C c #D7D7D8",
"Z c #D8D7D8",
"A c #E0DFDF",
"S c #E0DFE0",
"D c #E4E4E4",
"F c #E9E7E7",
"G c #E7E7E8",
"H c #E9E7E9",
"J c #E7E9E9",
"K c #F0EFEF",
"L c #EFF1EF",
"P c #F1F1EF",
"I c #EFF0F0",
"U c #F3F3F3",
"Y c #F7F8F7",
"T c #F8F8F7",
"R c #FBFBFB",
/* pixels */
"JUDDDDDGDDJHGHGDHDGJJJJJJJJKJJKJJKJJKJKJJJKJJUJPKJUKKKPPPUIUUUUIUUUUUUUYUYUYYYYYTYTTTRTRRRRRRRRRRRRRRRRRRRVl",
"URKVVVVVVVVVVVVVDVVVVAVASAVAVAAAAAAAAADDDADDDDDDDDDDDDDDDDDDDDDDGGDGGFGFFGGGFJJJJJKJJJKJJPJKKJKJIJKUPUUKUA0e",
"DJRUVVVVVVVVVVSVAVVVAAVSVAAADAASADAAADAADDADDDDDDDDDDDDDDDDDDDDGDGJJGGGFGFFFFJLJJJKJJJJKJJLLJKKIJKJULJLLV0&1",
"DMURDDDDGGGDJHJJJJJDJJJJJJHHJJJJJJJKJJKJKJJJJKJKKUJKKKKUKUIUKUUUUUUUUUUUYUYYUYYYTTTTRTRTTYRRRRRRRRRRRRRRa& 1",
"DCNDssasasssdssssssssdssldhslsdjslsllljljlllhlllllllllllzllcllvllbblnxcbxxbmnbnmmmbmbbmmmbmmMmmmMbbbMbmM1  1",
"DBMDsassssssssssssssssjsdsfsshfjdslsjjldljjllllllllllllzllzlbvvbncxnxxbcccbbcmmbbbbmmmmmmmmmbmmbMbMmMmbM1 .1",
"DMMDssssse-. +;ysssssslssslslfhkjlgllsdjhljlljklllll3*ls@;lvxblnxlblxxccbbbmbbmnmbmmmbmmmmmmmmmMbMbbbbmm1  1",
"DMNDasas6 .-2; Xyshssjssjsslsdfjlsslfldllklhllllllll:+la.&lxllblnbbzvzbbbbbbmnbm5ymmbmmmmbMmmmmmmmmMmMMm1 .1",
"DVMDsssa.Oesss0 $ssssdsdsklsddjsslggslfllllllkllllll:+clssxxlnxcbblbncbbxxmbmbbnX2ccmmmmmmmmmMbmmmmmmmmm1  1",
"DBBDssa2 8sssss; sddsssdsssdsslllsslldlslslkllllllll:@lllllbblbllvbbbxllcxmbbbbxX2bbbbmmmmmmbbmmmbMmMbMM1. 1",
"DMMDass#+sssssssusfsq&.+;asslsw&.+;adll1*0# :ll6$ +6:+ll&3ll&36# @7lncl3@ O-fb;     sbe&.@3bmMa-O.$8bmmm1  1",
"DMMDssa -ssssssssss8 &54o+sfk9 &54o+sjd-@o#-6l6 *63.$+xlo:xl+#o25$ unn2 ;95X;bpw ;0eb0 :w6o;bb#+48* eMmM1 .1",
"DNZDasy 1sassssssss##ssfy 3ss#$slly 3sl- ;hlls+$llle +llo:lvo uzby 4nn-=xbm1@xxm.2mmb$-bbm8 ys 5mmn&9mmm1  1",
"SNVDssu 1sssssssssu 4sjss$&su 4slss&&ll- alllu 4llll$+lxO:nl+-blll 2nnxxbbn3Xxxb.2mma 8xmml 4n.$ymmmmbmM1 .1",
"GVVDsss -sssssssss8 9sshs;+s0 0sfgl;+ll-+lhjl0 0xlll;@llO:ln+:lbcx 2xnx9<-%XXxxm.2bbe       2M6  o:ymMMm1  1",
"DVVDass@#ssssssy:a0 0sjfs;+k0 9lfgs;+ss-#lllle 0llll;@llo:xlo:lcbl 2cn> =36;Xmmm.2bbr 6yyyyybbbf6:  6mbM1 .1",
"DZVGsss2 6sssss; eu 4slss$*sp 4kjsl$&kl-+llklp 4llll$+ll+:zl+:llzl 2zu 2lbb2XxnbX2bms 7mmmbunbubbbl@$mMm1  1",
"DZVDsasi.+rsss0 $ss$#sjsr 4hh#$hlsy 4kl-#flllk#$lllw +ll+;ln+:clzz 2z0 9bbl$Xcbmo<mbx%*bmby 69 8bMb-#mMm1. 1",
"DCZDssss6 .-2; ouss8 *64o+ssh8 *64o+sll-@lllll7 *73.#@llO:ll$2zzzz 2za.$75#. lmm%O4;aw -w8+Ohloo38: 3mmm1 .1",
"DCVDsassse;# +;psssh0&.+;aslgkw&.O;alkl1*llklll7$ @53*cz%3lzlllzzz@6cc8# #29Xfbbe@ &sbt*.o-amba-o @3bmmM1  1",
"DVCDssssssssssshsssssssdsslsdslflglsllgllllllllkzlllzllllllllzzlcccccccmbbbbbbbmnbmmbmmmbbmmbmMbbMmmMmMm1  1",
"DVbr;::;:::;::::::::::::::::::::::::::::::::<<>>:<<<:>><<>1><<<<<1<<11<111<<1111<111<111111111111111<111-  1",
"Dv7% .    .       .      .               .            .    .       .            .   .     .      .       . 1",
"h7$                   .    .      .  .           .      .    .            .  .          .   .     .    .   2",
"a8:;::::;:::::;::::::::::::::::::::::::,:>::>:>>:>>:>:>::>:1>>>><<<<<<<<<<<<<<<11<1<1<1<11111111111111112127"
};
