/* XPM */
static char *_7ed42f14f8444f3a4e82a0a4182cd72[] = {
/* columns rows colors chars-per-pixel */
"42 42 10 1 ",
"  c #2A71FF",
". c #2B71FF",
"X c #2B72FF",
"o c #2B73FF",
"O c #2C71FF",
"+ c #2C72FF",
"@ c #2D72FF",
"# c #2C73FF",
"$ c #2D73FF",
"% c None",
/* pixels */
"%%%%%%%%%%%%%%%%%%%%%%%%%%%%%%%%%%%%%%%%%%",
"%%%%%%%%%%%%%%%%%%%%%%%%%%%%%%%%%%%%%%%%%%",
"%%%%%%%%%%%%%%%%%%%%%%%%%%%%%%%%%%%%%%%%%%",
"%%%%%%%%%%%%%%%%%%%%%%%%%%%%%%%%%%%%%%%%%%",
"%%%%%%%%%%%%%%%%%%%%%%%%%%%%%%%%%%%%%%%%%%",
"%%%%%%%%%%%%%%%%%%%%%%%%%%%%%%%%%%%%%%%%%%",
"%%%%%%%%%%%%%%%%%++++++++%%%%%%%%%%%%%%%%%",
"%%%%%%%%%%%%%%++++@@@@@@+++%%%%%%%%%%%%%%%",
"%%%%%%%%%%%%+@@@@@@@@@@@++@@+%%%%%%%%%%%%%",
"%%%%%%%%%%%+@@@@@@@@@@@@@@@@@@+%%%%%%%%%%%",
"%%%%%%%%%%++@@@@@@@@@@@@@@@@@@++%%%%%%%%%%",
"%%%%%%%%%+++@@@@@@@@@@@@@@@@@@@++%%%%%%%%%",
"%%%%%%%%++@@@@@@@@@@@@@@@@@@@@@@@%%%%%%%%%",
"%%%%%%%%++@@@@@@@@@@@@@@@@@@@@@@@@%%%%%%%%",
"%%%%%%%+@@@@@@@@@@@@@@@@@@@@@@@@@@+%%%%%%%",
"%%%%%%%+@@@@@@@@@@@@@@@@@@@@@@@@@@+%%%%%%%",
"%%%%%%++@@@@@@@@@@@@@@@@@@@@@@@@@@@+%%%%%%",
"%%%%%%+@@@@@@@@@@@@@@@@@@@@@@@@@@@@+%%%%%%",
"%%%%%%+@@@@@@@@@@@@@@@@@@@@@@@@@@@@+%%%%%%",
"%%%%%+++@@@@@@@@@@@@@@@@@@@@@@@@@@@@%%%%%%",
"%%%%%+++@@@@@@@@@@@@@@@@@@@@@@@@@@@+%%%%%%",
"%%%%%+++@@@@@@@@@@@@@@@@@@@@@@@@@@@+%%%%%%",
"%%%%%++@@@@@@@@@@@@@@@@@@@@@@@@@@@@+%%%%%%",
"%%%%%++@@@@@@@@@@@@@@@@@@@@@@@@@@@@+%%%%%%",
"%%%%%%++@@@@@@@@@@@@@@@@@@@@@@@@@@@+%%%%%%",
"%%%%%%@@@@@@@@@@@@@@@@@@@@@@@@@@@@@+%%%%%%",
"%%%%%%++@@@@@@@@@@@@@@@@@@@@@@@@@@++%%%%%%",
"%%%%%%%+@@@@@@@@@@@@@@@@@@@@@@@@@++%%%%%%%",
"%%%%%%%+@@@@@@@@@@@@@@@@@@@@@@@@@@+%%%%%%%",
"%%%%%%%%+@@@@@@@@@@@@@@@@@@@@@@@@+%%%%%%%%",
"%%%%%%%%+@@@@@@@@@@@@@@@@@@@@@@@++%%%%%%%%",
"%%%%%%%%%+@@@@@@@@@@@@@@@@@@@@@@+%%%%%%%%%",
"%%%%%%%%%%++@@@@@@@@@@@@@@@@@@@+%%%%%%%%%%",
"%%%%%%%%%%%+@@@@@@@@@@@@@@@@@++%%%%%%%%%%%",
"%%%%%%%%%%%%+++@@@@+@@@@@+@@+%%%%%%%%%%%%%",
"%%%%%%%%%%%%%%++++@+@@@@++@+%%%%%%%%%%%%%%",
"%%%%%%%%%%%%%%%%%++++++++%%%%%%%%%%%%%%%%%",
"%%%%%%%%%%%%%%%%%%%%%%%%%%%%%%%%%%%%%%%%%%",
"%%%%%%%%%%%%%%%%%%%%%%%%%%%%%%%%%%%%%%%%%%",
"%%%%%%%%%%%%%%%%%%%%%%%%%%%%%%%%%%%%%%%%%%",
"%%%%%%%%%%%%%%%%%%%%%%%%%%%%%%%%%%%%%%%%%%",
"%%%%%%%%%%%%%%%%%%%%%%%%%%%%%%%%%%%%%%%%%%"
};
