/* XPM */
static char *fly[] = {
/* columns rows colors chars-per-pixel */
"42 42 101 2 ",
"   c None",
".  c #F4DC25",
"X  c #F4DE2C",
"o  c #EFD53E",
"O  c #EDD83B",
"+  c #F5DC37",
"@  c #F9DD36",
"#  c #F5DC3A",
"$  c #F9DE3A",
"%  c #F3E227",
"&  c #F4E22D",
"*  c #F5E434",
"=  c #F9E133",
"-  c #F6E43C",
";  c #F9E33C",
":  c #F6E83C",
">  c #F8E93E",
",  c #BABC6E",
"<  c #AFB77E",
"1  c #BBBB73",
"2  c #B5B778",
"3  c #C4BF64",
"4  c #B9C07E",
"5  c #DECF4E",
"6  c #C9C35E",
"7  c #CEC95D",
"8  c #D5CB55",
"9  c #DBCC53",
"0  c #D2C65B",
"q  c #D2C95C",
"w  c #D8CE5B",
"e  c #DDD556",
"r  c #E2CF49",
"t  c #E6D247",
"y  c #EBD443",
"u  c #EEDB44",
"i  c #E5D14C",
"p  c #EBD74C",
"a  c #F1D640",
"s  c #F2DD45",
"d  c #E2D050",
"f  c #E0D852",
"g  c #F6E641",
"h  c #F9E642",
"j  c #F6E943",
"k  c #F9E945",
"l  c #F7EC49",
"z  c #F9EC4A",
"x  c #CAC363",
"c  c #CCC966",
"v  c #C7C76A",
"b  c #C8C768",
"n  c #D0CA6C",
"m  c #C0C379",
"M  c #3B79EF",
"N  c #2D72FF",
"B  c #3576F5",
"V  c #3778F4",
"C  c #3A79F3",
"Z  c #3274F9",
"A  c #457EE5",
"S  c #427DE9",
"D  c #7C9CAD",
"F  c #6D93BE",
"G  c #7497B6",
"H  c #7999B3",
"J  c #7397BD",
"K  c #5E8CCC",
"L  c #4D82DE",
"P  c #5687D6",
"I  c #5B8CD4",
"U  c #5285D9",
"Y  c #5E90D7",
"T  c #628ECA",
"R  c #6791C4",
"E  c #6C92C0",
"W  c #6F98C7",
"Q  c #6A98CC",
"!  c #749CC4",
"~  c #4780E1",
"^  c #4A82E4",
"/  c #4380EC",
"(  c #4883E9",
")  c #9CAC8E",
"_  c #92A795",
"`  c #91A997",
"'  c #9DAC92",
"]  c #92A898",
"[  c #9EB299",
"{  c #A0AE8A",
"}  c #A7B186",
"|  c #ABB481",
" . c #ACBA8B",
".. c #B0BD86",
"X. c #A0B397",
"o. c #AAB792",
"O. c #809EAA",
"+. c #84A1A5",
"@. c #89A0A5",
"#. c #96AEA3",
"$. c #85A5B3",
/* pixels */
"                                                                                    ",
"                                                                                    ",
"                                . ; k k h z z k h                                   ",
"                          X h h h h h g ; g h h k k k j                             ",
"                      * j k h s $ # $ $ # $ # $ - - - j j j                         ",
"                    h k ; $ $ # # y 9 6 3 x 0 t # + - ; - g j &                     ",
"                @ h h ; $ # t 1 @.T A C C M S P G ) 6 + + ; h k -                   ",
"              ; h h $ $ y } T C N N N N N N N N N N L +.x $ $ ; h ;                 ",
"            : h ; ; + x G Z N N N N N N N N N N N N N N A ) a # ; g :               ",
"          & k ; = # < P N N N N N N N N N N N N N N N N Z Z D r $ $ h -             ",
"          k ; $ # | ^ N N N N N N N N N N N N N N N N N N N N H r $ ; j &           ",
"        > h - # , L N N N N N N N N N N N N N N N N N N N N N N O.y @ - k           ",
"      * : ; + 5 R N N N N N N N N N N N N N N N N N N N N N N N Z ) + ; ; ;         ",
"      j ; ; + ] Z N N N N N N N N N N N N N N N N N N N N N N N N L x @ ; h         ",
"    & j - @ 7 L N N N N N N N N N N N N N N N N N N N N N N N N N N +.# # ; *       ",
"    : > ; + ] N N N N N N N N N N N N N N N N N N N N N N N N N N N ^ q + ; k       ",
"    h ; + t K N N N N N N N N N N N N N N N N N N N N N N N N N N N Z ' $ $ > %     ",
"  X h ; + 3 M N N N N N N N N N N N N N N N N N N N N N N N N N N N N J a ; ; -     ",
"  * h ; + | Z N N N N N N N N N N N N N N N N N N N N N N N N N N N N U d @ ; ;     ",
"  ; - - + ] Z N N N N N N N N N N N N N N N N N N N N N N N N N N N N S c @ ; ;     ",
"  : g - + D N N N N N N N N N N N N N N N N N N N N N N N N N N N N N C b @ - k     ",
"  > : ; + D N N N N N N N N N N N N N N N N N N N N N N N N N N N N N C v @ * j     ",
"  : g - + O.N N N N N N N N N N N N N N N N N N N N N N N N N N N N N C x $ - g     ",
"  - h - + ' N N N N N N N N N N N N N N N N N N N N N N N N N N N N N ( w $ - h     ",
"  - k ; + 2 Z N N N N N N N N N N N N N N N N N N N N N N N N N N N N I i - ; ;     ",
"  & k - $ 0 A N N N N N N N N N N N N N N N N N N N N N N N N N N N N $.# ; ; ;     ",
"    k > $ o F N N N N N N N N N N N N N N N N N N N N N N N N N N N Z ..# @ ; X     ",
"    j k ; @ } Z N N N N N N N N N N N N N N N N N N N N N N N N N N Y e + ; g       ",
"    - j ; $ r T N N N N N N N N N N N N N N N N N N N N N N N N N Z [ # ; ; >       ",
"      k ; ; + | C N N N N N N N N N N N N N N N N N N N N N N N N W f # ; > %       ",
"      > k ; # O +.N N N N N N N N N N N N N N N N N N N N N N N ( ..# @ ; >         ",
"        k j ; = 9 R N N N N N N N N N N N N N N N N N N N N N Z [ # $ ; > .         ",
"        * k k ; @ 0 R Z Z N N N N N N N N N N N N N N N N N C #.a $ ; h =           ",
"          j k > ; @ 8 H Z N N N N N N N N N N N N N N N N ( X.u - ; h ;             ",
"            k k - - $ y ) P N N Z N N N N N N N N N N Z ! m # @ ; ; k               ",
"              z k h ; $ # 0 _ P Z N N Z N N N N Z S !  .p # $ ; h h                 ",
"                k k h h ; # + i , _ G T I I ! $.o.n p # $ $ ; h h                   ",
"                  > l j - - ; # $ + o o y p a a o $ $ $ h h j ;                     ",
"                      l l j j - g h ; # # $ $ $ ; ; h g g j X                       ",
"                          l l l h z h h g h h h h h k h X                           ",
"                              > k z z z z z z k k =                                 ",
"                                                                                    "
};
