/* XPM */
static char *press[] = {
/* columns rows colors chars-per-pixel */
"42 42 74 1 ",
"  c None",
". c #79DE4F",
"X c #6CDF51",
"o c #74DF52",
"O c #51E257",
"+ c #5AE255",
"@ c #51E358",
"# c #5BE358",
"$ c #73E04E",
"% c #78E14C",
"& c #64E155",
"* c #6AE256",
"= c #67E458",
"- c #73E255",
"; c #7BE255",
": c #77E358",
"> c #F4D61F",
", c #CCDA3E",
"< c #D5DB3F",
"1 c #DBDB3B",
"2 c #F4DD23",
"3 c #F4DE2A",
"4 c #E6DD35",
"5 c #E4D93B",
"6 c #EADB3B",
"7 c #F5DC36",
"8 c #F9DE36",
"9 c #F4DB3A",
"0 c #F9DE3A",
"q c #F4E32D",
"w c #F6E334",
"e c #F9E435",
"r c #F6E33C",
"t c #F9E33C",
"y c #F6E93E",
"u c #F9E83D",
"i c #86DE4C",
"p c #8BDF4C",
"a c #92DF4B",
"s c #9DDE4B",
"d c #8BDF54",
"f c #93DE50",
"g c #AEDA47",
"h c #A7DF4B",
"j c #AADE4E",
"k c #B4DD44",
"l c #BCDD43",
"z c #B4DE4B",
"x c #BADA4A",
"c c #8EE04E",
"v c #9DE24F",
"b c #84E153",
"n c #8BE253",
"m c #94E254",
"M c #9CE252",
"N c #ADE14B",
"B c #A1E050",
"V c #B5E051",
"C c #C3DB43",
"Z c #CBDC44",
"A c #CDDE4A",
"S c #D3DC42",
"D c #DBDD43",
"F c #D2DC48",
"G c #D9DC48",
"H c #E4DB41",
"J c #E9DC41",
"K c #C7E049",
"L c #F6E541",
"P c #F9E642",
"I c #F7E943",
"U c #F9E944",
"Y c #F7EB49",
"T c #F9EB49",
/* pixels */
"                                          ",
"                                          ",
"               eUUYYTLTTYUe               ",
"             UUUPU0ULULUUUUYU             ",
"           UYLLL00P090909uuyLLL           ",
"         eUUU90099HHDDH69799tuLUw         ",
"        UUU009LGVf;=XXXXak1789UyUu        ",
"       UU000JAm=OO@@OOO@OO*cZ90ttUt       ",
"      LUte7HB=O@@@@@@@@@OO@@=sH99uLu      ",
"     eUt09KbO@@@@@@@@@@@OO@@@@bZ80tUq     ",
"    2Ut00K;O@@@@@@@@@@@@O@@@OOO;Z90tL     ",
"    Utt9F;OO@@@@@@@@@@@@OO@@@OOO;F8tLu    ",
"   wLu76nO@@@@@@@@@@@@@@@@@@@@@@OnJ0tUq   ",
"   Ltt7hOO@@@@@@@@@@@@@@@@@@@@@@OOj90tt   ",
"  qLu7D-OOOO@@@@@@@@@@@@@@@@@@@@OO-D89L   ",
"  yut7hOOOOO@@@@@@@@@@@@@@@@@@@@OOOh9tuw  ",
"  L986;@@@@@@@@@@@@@@@@@@@@@@@@@@@@;H0tw  ",
" 3Uu7Z+@@@@@@@@@@@@@@@@@@@@@@@@@@@@#A0tL  ",
" w9u9xO@@@@@@@@@@@@@@@@@@@@@@@@@@@@Ox9tt2 ",
" tuu9sO@@@@@@@@@@@@@@@@@@@@@@@@@@@@OM6uu3 ",
" tLu7pO@@@@@@@@@@@@@@@@@@@@@@@@@@@@On99uq ",
" uu77iOO@@@@@@@@@@@@@@@@@@@@@@@@@@@Ob67uw ",
" uLu7i@@@@@@@@@@@@@@@@@@@@@@@@@@@@@On9tu3 ",
" uu97s@@@@@@@@@@@@@@@@@@@@@@@@@@@@@OM69u3 ",
" wUtwg@@@@@@@@@@@@@@@@@@@@@@@@@@@@@@NLtt> ",
" qLt0Z+@@@@@@@@@@@@@@@@@@@@@@@@@@@@#A99t  ",
"  Ut05XO@@@@@@@@@@@@@@@@@@@@@@@@O@O-D8tu  ",
"  Lu07s@@@@@@@@@@@@@@@@@@@@@@@@@OOOB60tw  ",
"  wLt0<X@@@@@@@@@@@@@@@@@@@@@@@@OO=K7tu   ",
"   LU07a@@@@@@@@@@@@@@@@@@@@@@@@OOM6tty   ",
"   uUu91-@@@@@@@@@@@@@@@@@@@@@@@O;D7tt2   ",
"    Uue8C=@@@@@@@@@@@@@@@@@@@@@@=l79uu    ",
"    wUUt0lX@@@@@@@@@@@@@@@@@@@@#x90tt     ",
"     LUte7kX@@@@@O@@@@@@@@@@@OXVJ9tU8     ",
"      UUt971p@@@OOOO@@@@@@@@+dZ98tte      ",
"       YUUt06g$OOOOO@@@@@@@-hH70tUt       ",
"        UUUuu74laoX@OO++-axJ999UU8        ",
"         yULu900961,,CZD69900PUU8         ",
"           YYLLyL0009700099LLLu           ",
"            yYYLUUULL0tUUUUUU             ",
"               UTTTTTTTYYUw               ",
"                                          "
};
